<svg xmlns="http://www.w3.org/2000/svg" xmlns:xlink="http://www.w3.org/1999/xlink" fill="none" version="1.1" width="24" height="24" viewBox="0 0 24 24"><defs><clipPath id="master_svg0_117_1208"><rect x="0" y="0" width="24" height="24" rx="0"/></clipPath></defs><g clip-path="url(#master_svg0_117_1208)"><g><path d="M15.000018798828124,18.527992919921875L6.972758798828125,18.527992919921875L6.972758798828125,18.525792919921876L9.000008798828125,18.526492919921875L9.000008798828125,15.740292919921876C9.000008798828125,15.721492919921875,9.005258798828125,15.704292919921874,9.005258798828125,15.686292919921875C9.035258798828124,14.054992919921874,10.364258798828125,12.735752919921875,12.000008798828125,12.735752919921875C13.635718798828124,12.735752919921875,14.964718798828125,14.055792919921876,14.994718798828124,15.686292919921875C14.994718798828124,15.704292919921874,15.000018798828124,15.721492919921875,15.000018798828124,15.740292919921876L15.000018798828124,18.527992919921875ZM20.646018798828123,8.504252919921875L18.750018798828123,7.262252919921875L18.750018798828123,4.855502919921875C18.750018798828123,4.4412929199218745,18.414218798828124,4.105502919921875,18.000018798828123,4.105502919921875C17.585818798828125,4.105502919921875,17.250018798828123,4.4412929199218745,17.250018798828123,4.855502919921875L17.250018798828123,6.280502919921875L12.411008798828124,3.108755919921875C12.283888798828125,3.030097419921875,12.135778798828126,2.992153819921875,11.986508798828124,3.000005899921875C11.841248798828126,2.994405629921875,11.697618798828126,3.032270719921875,11.574008798828125,3.108755919921875L3.339004798828125,8.505002919921875C2.992975708828125,8.732172919921876,2.896409798828125,9.196732919921875,3.123241798828125,9.542982919921876C3.3500747988281248,9.889232919921875,3.8145327988281252,9.986252919921874,4.161008798828125,9.759752919921876L4.500008798828125,9.537002919921875L4.500008798828125,18.749992919921873C4.500008798828125,19.454992919921875,5.136758798828125,20.029492919921875,5.919758798828125,20.029492919921875L18.080218798828128,20.029492919921875C18.863218798828125,20.028792919921877,19.500018798828126,19.454992919921875,19.500018798828126,18.749992919921873L19.500018798828126,9.547502919921875L19.824718798828126,9.759752919921876C20.171218798828125,9.986532919921874,20.636018798828125,9.889492919921874,20.862718798828126,9.543002919921875C21.089518798828124,9.196512919921876,20.992518798828126,8.731782919921875,20.646018798828123,8.505002919921875L20.646018798828123,8.504252919921875Z" fill="#447ED9" fill-opacity="1"/></g></g></svg>