<svg xmlns="http://www.w3.org/2000/svg" xmlns:xlink="http://www.w3.org/1999/xlink" fill="none" version="1.1" width="24" height="24" viewBox="0 0 24 24"><defs><clipPath id="master_svg0_124_1212"><rect x="0" y="0" width="24" height="24" rx="0"/></clipPath></defs><g clip-path="url(#master_svg0_124_1212)"><g><path d="M9,3C12.3,3,15,5.7,15,9C15,12.3,12.3,15,9,15C5.7,15,3,12.3,3,9C3,5.7,5.7,3,9,3ZM9,1.5C4.85625,1.5,1.5,4.85625,1.5,9C1.5,13.1437,4.85625,16.5,9,16.5C13.1438,16.5,16.5,13.1437,16.5,9C16.5,4.85625,13.1438,1.5,9,1.5ZM15.9,14.85L14.8313,15.9187L21.2063,22.2937L22.275,21.225L15.9,14.85Z" fill="#3D3D3D" fill-opacity="1"/></g></g></svg>